# xmcd CD database file
#
# Track frame offsets:
#	150
#	19722
#	44700
#
# Disc length: 798 seconds
#
# Revision: 3
# Processed by: cddbd v1.5.1PL0 Copyright (c) Steve Scherf et al.
# Submitted via: CDex 1.51
#
DISCID=20031c03
DTITLE=田村ゆかり - 恋せよ女の子
DYEAR=2005
DGENRE=Anime
TTITLE0=恋せよ女の子
TTITLE1=君をつれて
TTITLE2=candy smile
EXTD=YEAR: 2005
EXTT0=
EXTT1=
EXTT2=
PLAYORDER=
